<svg width="35" height="35" viewBox="0 0 35 35" fill="none" xmlns="http://www.w3.org/2000/svg">
<path d="M20.5968 4.71765L21.5918 4.61815V4.61814L20.5968 4.71765ZM20.1827 3.1752L20.8537 2.43375L20.8537 2.43375L20.1827 3.1752ZM20.6532 5.28199L19.6582 5.38149V5.38149L20.6532 5.28199ZM21.4511 7.96128L21.8337 7.0374L21.4511 7.96128ZM23.9098 6.63089L24.543 7.40485L24.543 7.40485L23.9098 6.63089ZM24.3487 6.27177L23.7155 5.49782L23.7155 5.49782L24.3487 6.27177ZM25.7322 5.4739L25.782 4.47514L25.7322 5.4739ZM27.0294 6.40547L26.3223 7.11258L27.0294 6.40547ZM28.5945 7.97057L27.8874 8.67768H27.8874L28.5945 7.97057ZM28.7282 10.6513L27.9542 10.018H27.9542L28.7282 10.6513ZM28.369 11.0902L29.143 11.7235H29.143L28.369 11.0902ZM27.0386 13.5489L27.9625 13.1663L27.9625 13.1663L27.0386 13.5489ZM29.7179 14.3468L29.6184 15.3418H29.6184L29.7179 14.3468ZM30.2824 14.4032L30.3819 13.4082H30.3819L30.2824 14.4032ZM31.8248 14.8173L31.0834 15.4883L31.0834 15.4883L31.8248 14.8173ZM31.8248 20.1827L31.0834 19.5117L31.8248 20.1827ZM30.2824 20.5968L30.3819 21.5918H30.3819L30.2824 20.5968ZM29.7185 20.6531L29.619 19.6581L29.7185 20.6531ZM27.0392 21.451L26.1153 21.0683V21.0683L27.0392 21.451ZM28.3696 23.9097L29.1435 23.2765L29.1435 23.2765L28.3696 23.9097ZM28.7283 24.3481L27.9543 24.9813L27.9543 24.9813L28.7283 24.3481ZM29.5261 25.7315L30.5249 25.7814L29.5261 25.7315ZM25.7322 29.5254L25.782 30.5242L25.7322 29.5254ZM24.3488 28.7276L23.7155 29.5015H23.7155L24.3488 28.7276ZM23.9098 28.3684L24.5431 27.5945L24.5431 27.5945L23.9098 28.3684ZM21.4511 27.0381L21.0684 26.1142H21.0684L21.4511 27.0381ZM20.6533 29.7173L21.6483 29.8168V29.8168L20.6533 29.7173ZM20.5968 30.2823L19.6017 30.1828V30.1828L20.5968 30.2823ZM20.1827 31.8248L19.5117 31.0833L20.1827 31.8248ZM14.8173 31.8248L15.4883 31.0833L15.4883 31.0833L14.8173 31.8248ZM14.4033 30.2823L15.3983 30.1828V30.1828L14.4033 30.2823ZM14.3468 29.7179L13.3518 29.8174L14.3468 29.7179ZM11.0903 28.369L11.7235 29.143L11.0903 28.369ZM10.6512 28.7282L11.2845 29.5022V29.5022L10.6512 28.7282ZM9.26775 29.5261L9.21794 30.5249L9.26775 29.5261ZM7.97054 28.5945L8.67764 27.8874L7.97054 28.5945ZM6.40544 27.0294L5.69833 27.7365L5.69833 27.7365L6.40544 27.0294ZM5.47386 25.7322L4.4751 25.782L5.47386 25.7322ZM6.27174 24.3487L7.04569 24.982H7.04569L6.27174 24.3487ZM6.63092 23.9097L7.40487 24.543L6.63092 23.9097ZM7.9613 21.451L8.88518 21.0683L7.9613 21.451ZM5.28201 20.6532L5.1825 21.6482H5.1825L5.28201 20.6532ZM4.71768 20.5968L4.61818 21.5918H4.61818L4.71768 20.5968ZM3.17523 20.1827L2.43378 20.8537L2.43378 20.8537L3.17523 20.1827ZM3.17523 14.8173L2.43378 14.1463L2.43378 14.1463L3.17523 14.8173ZM4.71768 14.4032L4.61818 13.4082H4.61818L4.71768 14.4032ZM5.28256 14.3467L5.38206 15.3418H5.38206L5.28256 14.3467ZM7.96184 13.5489L7.03796 13.1662V13.1662L7.96184 13.5489ZM6.63146 11.0902L7.40542 10.4569L7.40542 10.4569L6.63146 11.0902ZM6.2718 10.6506L5.49784 11.2838H5.49785L6.2718 10.6506ZM6.4055 7.96991L5.6984 7.2628V7.2628L6.4055 7.96991ZM7.9706 6.40481L8.67771 7.11192H8.67771L7.9706 6.40481ZM9.26782 5.47324L9.218 4.47448L9.26782 5.47324ZM10.6513 6.27111L10.0181 7.04507L10.6513 6.27111ZM11.0903 6.63032L11.7236 5.85636V5.85636L11.0903 6.63032ZM13.549 7.9607L13.1663 7.03682H13.1663L13.549 7.9607ZM14.3469 5.28141L15.3419 5.38092V5.38092L14.3469 5.28141ZM14.4033 4.71765L13.4082 4.61814V4.61814L14.4033 4.71765ZM14.8173 3.1752L14.1463 2.43375L14.1463 2.43375L14.8173 3.1752ZM21.5918 4.61814C21.5517 4.21678 21.514 3.82015 21.4389 3.49653C21.3574 3.1451 21.2062 2.75271 20.8537 2.43375L19.5117 3.91665C19.4449 3.85624 19.4579 3.80711 19.4906 3.94828C19.5298 4.11726 19.5563 4.36259 19.6017 4.81715L21.5918 4.61814ZM21.6483 5.18249L21.5918 4.61815L19.6017 4.81715L19.6582 5.38149L21.6483 5.18249ZM21.8337 7.0374C22.0076 7.10942 21.9631 7.25104 21.8759 6.90437C21.7883 6.55628 21.7333 6.03306 21.6483 5.18248L19.6582 5.38149C19.7365 6.16446 19.804 6.86638 19.9363 7.39231C20.069 7.91966 20.3417 8.58415 21.0684 8.88516L21.8337 7.0374ZM23.2765 5.85694C22.6149 6.39824 22.2061 6.72933 21.898 6.91354C21.5912 7.097 21.6599 6.96537 21.8337 7.0374L21.0684 8.88516C21.7951 9.18617 22.4578 8.90913 22.9245 8.63005C23.3899 8.35172 23.934 7.90313 24.543 7.40485L23.2765 5.85694ZM23.7155 5.49782L23.2765 5.85694L24.543 7.40485L24.9819 7.04573L23.7155 5.49782ZM25.782 4.47514C25.3072 4.45146 24.9228 4.62194 24.6167 4.81282C24.3348 4.9886 24.0276 5.24239 23.7155 5.49782L24.9819 7.04573C25.3355 6.75645 25.5277 6.6017 25.6749 6.50992C25.7979 6.43325 25.7723 6.47714 25.6824 6.47266L25.782 4.47514ZM27.7365 5.69837C27.4513 5.41315 27.1709 5.13005 26.9079 4.9271C26.6223 4.7067 26.2567 4.49882 25.782 4.47514L25.6824 6.47266C25.5924 6.46817 25.5713 6.42195 25.6861 6.51048C25.8234 6.61645 25.9992 6.78955 26.3223 7.11258L27.7365 5.69837ZM29.3016 7.26346L27.7365 5.69837L26.3223 7.11258L27.8874 8.67768L29.3016 7.26346ZM30.5248 9.21798C30.5011 8.74322 30.2933 8.37765 30.0729 8.09204C29.8699 7.82903 29.5868 7.54869 29.3016 7.26346L27.8874 8.67768C28.2104 9.00071 28.3835 9.17656 28.4895 9.31388C28.578 9.42861 28.5318 9.40752 28.5273 9.3176L30.5248 9.21798ZM29.5021 11.2845C29.7576 10.9723 30.0114 10.6652 30.1871 10.3833C30.378 10.0772 30.5485 9.69273 30.5248 9.21798L28.5273 9.3176C28.5228 9.22768 28.5667 9.2021 28.49 9.32507C28.3983 9.47226 28.2435 9.66445 27.9542 10.018L29.5021 11.2845ZM29.143 11.7235L29.5021 11.2845L27.9542 10.018L27.5951 10.457L29.143 11.7235ZM27.9625 13.1663C28.0346 13.3401 27.9029 13.4088 28.0864 13.102C28.2706 12.7939 28.6017 12.3851 29.143 11.7235L27.5951 10.457C27.0968 11.066 26.6482 11.6101 26.3699 12.0755C26.0908 12.5422 25.8138 13.2049 26.1148 13.9316L27.9625 13.1663ZM29.8174 13.3517C28.9669 13.2667 28.4436 13.2117 28.0956 13.1241C27.7489 13.0369 27.8905 12.9924 27.9625 13.1663L26.1148 13.9316C26.4158 14.6583 27.0803 14.931 27.6076 15.0637C28.1335 15.196 28.8355 15.2635 29.6184 15.3418L29.8174 13.3517ZM30.3819 13.4082L29.8174 13.3517L29.6184 15.3418L30.1829 15.3983L30.3819 13.4082ZM32.5663 14.1463C32.2473 13.7939 31.8549 13.6426 31.5035 13.5611C31.1799 13.486 30.7832 13.4483 30.3819 13.4082L30.1829 15.3983C30.6374 15.4437 30.8827 15.4702 31.0517 15.5094C31.1929 15.5421 31.1438 15.5551 31.0834 15.4883L32.5663 14.1463ZM33.0834 16.3933C33.0834 15.9899 33.0853 15.5915 33.0428 15.262C32.9967 14.9042 32.8852 14.4987 32.5663 14.1463L31.0834 15.4883C31.0229 15.4216 31.0407 15.374 31.0592 15.5177C31.0814 15.6897 31.0834 15.9365 31.0834 16.3933H33.0834ZM33.0834 18.6067V16.3933H31.0834V18.6067H33.0834ZM32.5663 20.8537C32.8852 20.5012 32.9967 20.0957 33.0428 19.7379C33.0853 19.4085 33.0834 19.01 33.0834 18.6067H31.0834C31.0834 19.0635 31.0814 19.3103 31.0592 19.4823C31.0407 19.626 31.0229 19.5784 31.0834 19.5117L32.5663 20.8537ZM30.3819 21.5918C30.7832 21.5517 31.1799 21.5139 31.5035 21.4389C31.8549 21.3574 32.2473 21.2061 32.5663 20.8537L31.0834 19.5117C31.1438 19.4449 31.1929 19.4579 31.0517 19.4906C30.8827 19.5298 30.6374 19.5563 30.1829 19.6017L30.3819 21.5918ZM29.818 21.6482L30.3819 21.5918L30.1829 19.6017L29.619 19.6581L29.818 21.6482ZM27.9631 21.8337C27.891 22.0076 27.7494 21.963 28.0961 21.8758C28.4442 21.7882 28.9674 21.7332 29.818 21.6482L29.619 19.6581C28.836 19.7364 28.1341 19.8039 27.6082 19.9362C27.0808 20.0689 26.4163 20.3416 26.1153 21.0683L27.9631 21.8337ZM29.1435 23.2765C28.6022 22.6149 28.2711 22.206 28.0869 21.8979C27.9035 21.5912 28.0351 21.6598 27.9631 21.8337L26.1153 21.0683C25.8143 21.795 26.0913 22.4577 26.3704 22.9244C26.6488 23.3898 27.0973 23.9339 27.5956 24.5429L29.1435 23.2765ZM29.5022 23.7148L29.1435 23.2765L27.5956 24.5429L27.9543 24.9813L29.5022 23.7148ZM30.5249 25.7814C30.5486 25.3066 30.3781 24.9222 30.1872 24.616C30.0114 24.3341 29.7576 24.027 29.5022 23.7148L27.9543 24.9813C28.2436 25.3349 28.3983 25.5271 28.4901 25.6743C28.5668 25.7972 28.5229 25.7717 28.5274 25.6817L30.5249 25.7814ZM29.3017 27.7359C29.5869 27.4506 29.87 27.1703 30.0729 26.9073C30.2933 26.6217 30.5012 26.2561 30.5249 25.7814L28.5274 25.6817C28.5318 25.5918 28.5781 25.5707 28.4895 25.6854C28.3836 25.8228 28.2105 25.9986 27.8874 26.3217L29.3017 27.7359ZM27.7366 29.301L29.3017 27.7359L27.8874 26.3217L26.3223 27.8867L27.7366 29.301ZM25.782 30.5242C26.2568 30.5005 26.6224 30.2926 26.908 30.0722C27.171 29.8693 27.4513 29.5862 27.7366 29.301L26.3223 27.8867C25.9993 28.2098 25.8235 28.3829 25.6861 28.4889C25.5714 28.5774 25.5925 28.5312 25.6824 28.5267L25.782 30.5242ZM23.7155 29.5015C24.0277 29.7569 24.3348 30.0107 24.6167 30.1865C24.9229 30.3774 25.3073 30.5479 25.782 30.5242L25.6824 28.5267C25.7723 28.5222 25.7979 28.5661 25.675 28.4894C25.5278 28.3976 25.3356 28.2429 24.982 27.9536L23.7155 29.5015ZM23.2766 29.1424L23.7155 29.5015L24.982 27.9536L24.5431 27.5945L23.2766 29.1424ZM21.8338 27.9619C21.6599 28.034 21.5913 27.9023 21.8981 28.0858C22.2061 28.27 22.615 28.6011 23.2766 29.1424L24.5431 27.5945C23.9341 27.0962 23.39 26.6476 22.9245 26.3693C22.4578 26.0902 21.7951 25.8132 21.0684 26.1142L21.8338 27.9619ZM21.6483 29.8168C21.7334 28.9663 21.7884 28.443 21.8759 28.095C21.9632 27.7483 22.0077 27.8899 21.8338 27.9619L21.0684 26.1142C20.3417 26.4152 20.069 27.0797 19.9364 27.607C19.8041 28.1329 19.7365 28.8349 19.6582 29.6178L21.6483 29.8168ZM21.5918 30.3818L21.6483 29.8168L19.6582 29.6178L19.6017 30.1828L21.5918 30.3818ZM20.8537 32.5662C21.2062 32.2473 21.3574 31.8549 21.4389 31.5034C21.514 31.1798 21.5517 30.7832 21.5918 30.3818L19.6017 30.1828C19.5563 30.6374 19.5298 30.8827 19.4906 31.0517C19.4579 31.1929 19.4449 31.1437 19.5117 31.0833L20.8537 32.5662ZM18.6067 33.0833C19.0101 33.0833 19.4085 33.0853 19.738 33.0428C20.0958 32.9967 20.5013 32.8852 20.8537 32.5662L19.5117 31.0833C19.5785 31.0229 19.626 31.0407 19.4823 31.0592C19.3103 31.0814 19.0635 31.0833 18.6067 31.0833V33.0833ZM16.3933 33.0833H18.6067V31.0833H16.3933V33.0833ZM14.1463 32.5662C14.4988 32.8852 14.9043 32.9967 15.2621 33.0428C15.5915 33.0853 15.99 33.0833 16.3933 33.0833V31.0833C15.9365 31.0833 15.6898 31.0814 15.5177 31.0592C15.374 31.0407 15.4216 31.0229 15.4883 31.0833L14.1463 32.5662ZM13.4082 30.3818C13.4484 30.7832 13.4861 31.1798 13.5611 31.5034C13.6426 31.8549 13.7939 32.2473 14.1463 32.5662L15.4883 31.0833C15.5551 31.1437 15.5421 31.1929 15.5094 31.0517C15.4702 30.8827 15.4437 30.6374 15.3983 30.1828L13.4082 30.3818ZM13.3518 29.8174L13.4082 30.3818L15.3983 30.1828L15.3418 29.6184L13.3518 29.8174ZM13.1663 27.9625C12.9924 27.8905 13.0369 27.7489 13.1242 28.0955C13.2117 28.4436 13.2667 28.9668 13.3518 29.8174L15.3418 29.6184C15.2636 28.8354 15.196 28.1335 15.0637 27.6076C14.9311 27.0802 14.6584 26.4158 13.9316 26.1147L13.1663 27.9625ZM11.7235 29.143C12.3851 28.6017 12.794 28.2706 13.102 28.0864C13.4088 27.9029 13.3402 28.0345 13.1663 27.9625L13.9316 26.1147C13.2049 25.8137 12.5423 26.0908 12.0756 26.3699C11.6101 26.6482 11.066 27.0968 10.457 27.5951L11.7235 29.143ZM11.2845 29.5022L11.7235 29.143L10.457 27.5951L10.018 27.9543L11.2845 29.5022ZM9.21794 30.5249C9.69269 30.5485 10.0771 30.3781 10.3833 30.1872C10.6652 30.0114 10.9723 29.7576 11.2845 29.5022L10.018 27.9543C9.66442 28.2435 9.47222 28.3983 9.32503 28.4901C9.20206 28.5667 9.22764 28.5229 9.31756 28.5273L9.21794 30.5249ZM7.26343 29.3016C7.54865 29.5868 7.829 29.8699 8.09201 30.0729C8.37761 30.2933 8.74318 30.5012 9.21794 30.5249L9.31756 28.5273C9.40749 28.5318 9.42857 28.578 9.31385 28.4895C9.17652 28.3835 9.00067 28.2104 8.67764 27.8874L7.26343 29.3016ZM5.69833 27.7365L7.26343 29.3016L8.67764 27.8874L7.11255 26.3223L5.69833 27.7365ZM4.4751 25.782C4.49878 26.2568 4.70667 26.6223 4.92706 26.908C5.13002 27.171 5.41311 27.4513 5.69833 27.7365L7.11255 26.3223C6.78951 25.9993 6.61642 25.8234 6.51044 25.6861C6.42191 25.5714 6.46814 25.5925 6.47262 25.6824L4.4751 25.782ZM5.49778 23.7155C5.24235 24.0277 4.98856 24.3348 4.81278 24.6167C4.6219 24.9228 4.45143 25.3073 4.4751 25.782L6.47262 25.6824C6.47711 25.7723 6.43321 25.7979 6.50989 25.6749C6.60167 25.5277 6.75641 25.3355 7.04569 24.982L5.49778 23.7155ZM5.85696 23.2765L5.49778 23.7155L7.04569 24.982L7.40487 24.543L5.85696 23.2765ZM7.03742 21.8337C6.96539 21.6598 7.09702 21.5912 6.91356 21.898C6.72935 22.206 6.39826 22.6149 5.85696 23.2765L7.40487 24.543C7.90315 23.934 8.35174 23.3899 8.63007 22.9244C8.90915 22.4577 9.18618 21.7951 8.88518 21.0683L7.03742 21.8337ZM5.1825 21.6482C6.03308 21.7333 6.5563 21.7883 6.90439 21.8758C7.25105 21.9631 7.10944 22.0076 7.03742 21.8337L8.88518 21.0683C8.58417 20.3416 7.91968 20.0689 7.39233 19.9363C6.8664 19.804 6.16447 19.7364 5.38151 19.6582L5.1825 21.6482ZM4.61818 21.5918L5.1825 21.6482L5.38151 19.6582L4.81719 19.6017L4.61818 21.5918ZM2.43378 20.8537C2.75274 21.2061 3.14513 21.3574 3.49656 21.4389C3.82018 21.5139 4.21681 21.5517 4.61818 21.5918L4.81719 19.6017C4.36262 19.5563 4.1173 19.5298 3.94832 19.4906C3.80714 19.4579 3.85627 19.4449 3.91669 19.5117L2.43378 20.8537ZM1.91669 18.6067C1.91669 19.01 1.91474 19.4085 1.95721 19.7379C2.00332 20.0957 2.11482 20.5012 2.43378 20.8537L3.91669 19.5117C3.9771 19.5784 3.95933 19.626 3.9408 19.4823C3.91863 19.3103 3.91669 19.0635 3.91669 18.6067H1.91669ZM1.91669 16.3933V18.6067H3.91669V16.3933H1.91669ZM2.43378 14.1463C2.11482 14.4987 2.00332 14.9042 1.95721 15.262C1.91474 15.5915 1.91669 15.9899 1.91669 16.3933H3.91669C3.91669 15.9365 3.91863 15.6897 3.9408 15.5177C3.95933 15.374 3.9771 15.4216 3.91669 15.4883L2.43378 14.1463ZM4.61818 13.4082C4.21681 13.4483 3.82018 13.486 3.49656 13.5611C3.14513 13.6426 2.75274 13.7939 2.43378 14.1463L3.91669 15.4883C3.85627 15.5551 3.80715 15.5421 3.94832 15.5094C4.11729 15.4702 4.36262 15.4437 4.81718 15.3983L4.61818 13.4082ZM5.18305 13.3517L4.61818 13.4082L4.81718 15.3983L5.38206 15.3418L5.18305 13.3517ZM7.03796 13.1662C7.10999 12.9923 7.2516 13.0369 6.90493 13.1241C6.55685 13.2116 6.03363 13.2666 5.18305 13.3517L5.38206 15.3418C6.16502 15.2635 6.86695 15.196 7.39288 15.0636C7.92023 14.931 8.58471 14.6583 8.88572 13.9316L7.03796 13.1662ZM5.85751 11.7234C6.39881 12.385 6.7299 12.7939 6.91411 13.1019C7.09757 13.4087 6.96594 13.3401 7.03796 13.1662L8.88572 13.9316C9.18673 13.2049 8.9097 12.5422 8.63062 12.0755C8.35229 11.61 7.9037 11.066 7.40542 10.4569L5.85751 11.7234ZM5.49785 11.2838L5.85751 11.7234L7.40542 10.4569L7.04576 10.0174L5.49785 11.2838ZM4.47517 9.21731C4.45149 9.69207 4.62197 10.0765 4.81285 10.3826C4.98863 10.6645 5.24242 10.9717 5.49784 11.2838L7.04576 10.0174C6.75647 9.66379 6.60173 9.4716 6.50995 9.3244C6.43328 9.20144 6.47717 9.22702 6.47269 9.31694L4.47517 9.21731ZM5.6984 7.2628C5.41317 7.54803 5.13008 7.82837 4.92713 8.09138C4.70673 8.37699 4.49885 8.74256 4.47517 9.21731L6.47269 9.31694C6.4682 9.40686 6.42198 9.42795 6.51051 9.31322C6.61648 9.17589 6.78958 9.00005 7.11261 8.67702L5.6984 7.2628ZM7.26349 5.69771L5.6984 7.2628L7.11261 8.67702L8.67771 7.11192L7.26349 5.69771ZM9.218 4.47448C8.74325 4.49816 8.37768 4.70604 8.09207 4.92644C7.82906 5.12939 7.54872 5.41248 7.26349 5.69771L8.67771 7.11192C9.00074 6.78889 9.17658 6.61579 9.31391 6.50982C9.42864 6.42129 9.40755 6.46751 9.31763 6.472L9.218 4.47448ZM11.2845 5.49715C10.9723 5.24173 10.6652 4.98794 10.3833 4.81216C10.0772 4.62128 9.69276 4.4508 9.218 4.47448L9.31763 6.472C9.22771 6.47648 9.20213 6.43259 9.3251 6.50926C9.47229 6.60104 9.66448 6.75578 10.0181 7.04507L11.2845 5.49715ZM11.7236 5.85636L11.2845 5.49715L10.0181 7.04507L10.4571 7.40428L11.7236 5.85636ZM13.1663 7.03682C13.3402 6.9648 13.4089 7.09643 13.1021 6.91297C12.794 6.72876 12.3852 6.39767 11.7236 5.85636L10.4571 7.40428C11.0661 7.90255 11.6102 8.35115 12.0756 8.62948C12.5423 8.90856 13.205 9.18559 13.9317 8.88458L13.1663 7.03682ZM13.3518 5.18191C13.2668 6.03248 13.2118 6.55571 13.1242 6.90379C13.037 7.25046 12.9925 7.10885 13.1663 7.03682L13.9317 8.88458C14.6584 8.58357 14.9311 7.91909 15.0638 7.39174C15.1961 6.86581 15.2636 6.16388 15.3419 5.38092L13.3518 5.18191ZM13.4082 4.61814L13.3518 5.18191L15.3419 5.38092L15.3983 4.81715L13.4082 4.61814ZM14.1463 2.43375C13.7939 2.75271 13.6426 3.1451 13.5611 3.49653C13.4861 3.82015 13.4484 4.21678 13.4082 4.61814L15.3983 4.81715C15.4437 4.36258 15.4702 4.11726 15.5094 3.94828C15.5421 3.80711 15.5551 3.85624 15.4883 3.91666L14.1463 2.43375ZM16.3933 1.91666C15.99 1.91666 15.5915 1.91471 15.2621 1.95718C14.9043 2.00329 14.4988 2.11479 14.1463 2.43375L15.4883 3.91666C15.4216 3.97707 15.374 3.9593 15.5177 3.94077C15.6898 3.9186 15.9365 3.91666 16.3933 3.91666V1.91666ZM18.6067 1.91666H16.3933V3.91666H18.6067V1.91666ZM20.8537 2.43375C20.5013 2.11479 20.0958 2.00329 19.738 1.95718C19.4085 1.91471 19.0101 1.91666 18.6067 1.91666V3.91666C19.0635 3.91666 19.3103 3.9186 19.4823 3.94077C19.626 3.9593 19.5785 3.97707 19.5117 3.91666L20.8537 2.43375ZM22.3334 17.5C22.3334 20.1694 20.1694 22.3333 17.5 22.3333V24.3333C21.274 24.3333 24.3334 21.2739 24.3334 17.5H22.3334ZM17.5 12.6667C20.1694 12.6667 22.3334 14.8306 22.3334 17.5H24.3334C24.3334 13.726 21.274 10.6667 17.5 10.6667V12.6667ZM12.6667 17.5C12.6667 14.8306 14.8306 12.6667 17.5 12.6667V10.6667C13.7261 10.6667 10.6667 13.726 10.6667 17.5H12.6667ZM17.5 22.3333C14.8306 22.3333 12.6667 20.1694 12.6667 17.5H10.6667C10.6667 21.2739 13.7261 24.3333 17.5 24.3333V22.3333Z" fill="#111D4A"/>
</svg>
